<mxfile host="Electron" modified="2023-07-08T16:13:53.114Z" agent="Mozilla/5.0 (Macintosh; Intel Mac OS X 10_15_7) AppleWebKit/537.36 (KHTML, like Gecko) draw.io/21.5.1 Chrome/112.0.5615.204 Electron/24.6.0 Safari/537.36" etag="vcB9NhvDpBls51qykFRA" version="21.5.1" type="device">
  <diagram name="Page-1" id="GP_LnwKTWXGgMPiCncG_">
    <mxGraphModel dx="1114" dy="854" grid="1" gridSize="10" guides="1" tooltips="1" connect="1" arrows="1" fold="1" page="1" pageScale="1" pageWidth="827" pageHeight="1169" math="0" shadow="0">
      <root>
        <mxCell id="0" />
        <mxCell id="1" parent="0" />
        <mxCell id="8ushVQsEWapjdtuqUQVn-2" value="DB2" style="shape=cylinder3;whiteSpace=wrap;html=1;boundedLbl=1;backgroundOutline=1;size=15;fillColor=#008a00;strokeColor=#005700;fontColor=#ffffff;fontSize=15;fontStyle=1" vertex="1" parent="1">
          <mxGeometry x="200" y="50" width="60" height="80" as="geometry" />
        </mxCell>
        <mxCell id="8ushVQsEWapjdtuqUQVn-3" value="DB1" style="shape=cylinder3;whiteSpace=wrap;html=1;boundedLbl=1;backgroundOutline=1;size=15;fillColor=#1ba1e2;strokeColor=#006EAF;fontColor=#ffffff;fontStyle=1;fontSize=15;" vertex="1" parent="1">
          <mxGeometry x="80" y="50" width="60" height="80" as="geometry" />
        </mxCell>
        <mxCell id="8ushVQsEWapjdtuqUQVn-4" value="DB1&lt;br&gt;Secret" style="html=1;verticalLabelPosition=bottom;align=center;labelBackgroundColor=none;verticalAlign=top;strokeWidth=2;strokeColor=#006EAF;shadow=0;dashed=0;shape=mxgraph.ios7.icons.locked;fillColor=#1ba1e2;fontColor=#000000;" vertex="1" parent="1">
          <mxGeometry x="98" y="220" width="24" height="30" as="geometry" />
        </mxCell>
        <mxCell id="8ushVQsEWapjdtuqUQVn-7" value="DB2&lt;br&gt;Secret" style="html=1;verticalLabelPosition=bottom;align=center;labelBackgroundColor=none;verticalAlign=top;strokeWidth=2;strokeColor=#005700;shadow=0;dashed=0;shape=mxgraph.ios7.icons.locked;fillColor=#008a00;fontColor=#000000;" vertex="1" parent="1">
          <mxGeometry x="218" y="220" width="24" height="30" as="geometry" />
        </mxCell>
        <mxCell id="8ushVQsEWapjdtuqUQVn-16" style="edgeStyle=orthogonalEdgeStyle;orthogonalLoop=1;jettySize=auto;html=1;entryX=0.5;entryY=0.067;entryDx=0;entryDy=0;entryPerimeter=0;curved=1;endArrow=none;endFill=0;fillColor=#1ba1e2;strokeColor=#006EAF;strokeWidth=3;" edge="1" parent="1" target="8ushVQsEWapjdtuqUQVn-4">
          <mxGeometry relative="1" as="geometry">
            <mxPoint x="136" y="172" as="sourcePoint" />
          </mxGeometry>
        </mxCell>
        <mxCell id="8ushVQsEWapjdtuqUQVn-17" style="edgeStyle=orthogonalEdgeStyle;orthogonalLoop=1;jettySize=auto;html=1;curved=1;fillColor=#1ba1e2;strokeColor=#006EAF;strokeWidth=3;" edge="1" parent="1">
          <mxGeometry relative="1" as="geometry">
            <mxPoint x="110" y="130" as="targetPoint" />
            <mxPoint x="136" y="172" as="sourcePoint" />
          </mxGeometry>
        </mxCell>
        <mxCell id="8ushVQsEWapjdtuqUQVn-18" style="edgeStyle=orthogonalEdgeStyle;orthogonalLoop=1;jettySize=auto;html=1;curved=1;fillColor=#008a00;strokeColor=#005700;strokeWidth=3;" edge="1" parent="1">
          <mxGeometry relative="1" as="geometry">
            <mxPoint x="230" y="130" as="targetPoint" />
            <mxPoint x="200" y="172" as="sourcePoint" />
          </mxGeometry>
        </mxCell>
        <mxCell id="8ushVQsEWapjdtuqUQVn-19" style="edgeStyle=orthogonalEdgeStyle;orthogonalLoop=1;jettySize=auto;html=1;curved=1;strokeWidth=3;fillColor=#008a00;strokeColor=#005700;endArrow=none;endFill=0;" edge="1" parent="1" target="8ushVQsEWapjdtuqUQVn-7">
          <mxGeometry relative="1" as="geometry">
            <mxPoint x="200" y="172" as="sourcePoint" />
          </mxGeometry>
        </mxCell>
        <mxCell id="8ushVQsEWapjdtuqUQVn-22" value="Application" style="sketch=0;outlineConnect=0;fontColor=#232F3E;gradientColor=none;fillColor=#232F3D;strokeColor=none;dashed=0;verticalLabelPosition=bottom;verticalAlign=top;align=center;html=1;fontSize=12;fontStyle=3;aspect=fixed;pointerEvents=1;shape=mxgraph.aws4.gear;" vertex="1" parent="1">
          <mxGeometry x="133" y="138" width="70" height="70" as="geometry" />
        </mxCell>
      </root>
    </mxGraphModel>
  </diagram>
</mxfile>
